<?xml version="1.0" encoding="UTF-8"?>
<svg id="Capa_2" data-name="Capa 2" xmlns="http://www.w3.org/2000/svg" viewBox="0 0 237 106.2">
  <g id="Capa_1-2" data-name="Capa 1">
    <g>
      <path d="M93.59,14.11c.38.32.66,1.07.83,1.48.02.06.26.06.29.18.09.39.19,1.81.19,2.27,0,.81-.29,1.58-.19,2.39.53.11.54-.67.78-.99,3.41-4.52,10.87-7.11,16.33-4.88,2.66,1.09,4.58,3.47,5.19,6.23l.37-.11c.72-1.39,2.13-2.96,3.43-3.89,7.02-5.08,17.42-4.19,19.03,5.34.75,4.45-.17,10.38-.71,14.85-.27,2.24-.73,4.53-1.04,6.75-.53,3.82-.09,8.71-4.19,10.67-2.34,1.12-6.09,1.16-8.66.92-.19-.02-.4,0-.53-.18.16-.67.05-1.35.12-2.02.72-6.9,2.1-13.67,2.8-20.57.19-1.88.49-5.28-.41-6.92-.05-.09-1.31-1.38-1.4-1.42-.22-.1-1.55-.44-1.81-.42-.23.02-1.45.37-1.67.47-3.36,1.46-5.14,7.55-5.8,10.83-.53,2.67-.73,5.45-1.13,8.07-.36,2.34-.69,6.38-1.51,8.41-1.77,4.37-7.82,4.02-11.75,3.74.05-.66-.07-1.38.01-2.03.87-7.02,2.48-14.71,3-21.79.18-2.5.14-4.83-1.27-6.96-.8-.16-1.19-.6-2.18-.58-3.72.07-5.57,4.21-6.65,7.14-2.11,5.72-2.01,13.17-3.66,19.57-.15.58-.2.63-.34.98-.56,1.43-.8,1.89-2.24,2.63-1.77.91-4.41,1.39-6.4,1.4-.45,0-2.62-.2-2.85-.36-.17-.11-.15-.2-.16-.37-.02-.54.05-1.62.11-2.19.81-8.09,2.4-16.27,3.33-24.28.27-2.27.48-4.54.36-6.85-.49-.3-.45-.95-.77-1.47-.26-.41-2.68-2.81-2.41-3.08.16.01.32.02.46-.07,1.54-1.01,3.76-2.27,5.52-2.9,1.46-.52,4.08-1.03,5.78-.74.16.03,1.71.67,1.81.76Z" fill="#00aeef"/>
      <path d="M199.75,54.77c-.35-.1-1.4-2.94-1.63-3.51-.94-2.4-1.95-5.28-2.76-8.03-.39-1.24-.32-1.74-1.3-.42-4.27,5.77-9.18,10.53-15.94,13.27-1.96.79-4.66,1.75-7.07,2.05-.49.06-.99,0-1.48.02l19.63-23.74-9.71-19.73c.07-.75,6.47-.7,7.33-.62,1.75.17,4.2,1.25,5.61,2.31,2.03,1.53,3.21,4.93,4.1,7.27.28.73.49,1.36.76,1.98.14.32-.12.74.32.66l9.08-9.19c2.1-1.53,3.92-3.48,5.95-5.07,6.59-5.18,14.17-9.84,22.14-11.59.66-.14,1.26-.59,2.13-.35l.09.35-35.92,36.65c-.1.89.94-.2,1.12-.3.46-.25,1.2-.53,1.74-.79.2-.1.23-.55.84-.33l8.15,19.11h-13.19Z" fill="#00aeef"/>
      <path d="M71.27,16.44c3.18,1.84,5.07,4.6,6.47,7.92,1.58,3.75,1.76,8.61,1.03,12.97-2.07,12.34-13.5,20.95-26.23,18.29-14.01-2.92-16.11-19.12-10.37-30.26,5.29-10.26,18.79-14.88,29.1-8.92ZM63.84,24.58c-4.99-3.46-8.98,1.17-10.58,5.64-1.46,4.08-2.82,13.61,2.31,15.64,5.48,2.16,8.65-3.27,9.86-7.72.94-3.46,1.79-11.23-1.58-13.56Z" fill="#00aeef"/>
      <path d="M39.44,5.62s.03.2.2.28c.47.21.72.17,1.17.73,1.96,2.44.58,5.87-.58,8.42-.1.21-.68.96-.73,1.09-.15.4.24.85-.95.57-.13-.03-.1-.31-.25-.34-3.99-1-8.49-1.54-12.66-.67-6.53,1.36-11.6,6.47-12.17,13.68-.98,12.39,5.73,17.53,17.6,16.19l7.35-2.11c.18.19-.88,3.76-1.06,4.34-.52,1.68-1.61,4.82-2.67,6.14-.17.22-1.6,1.34-1.71,1.37-.46.1-1.04-.06-1.55.02-12.39,1.87-25.31-.75-30.13-13.61C.23,38.78-.07,35.14.01,31.84.41,15.75,12.51,5.25,28.24,4.67c2.81-.1,8.72.03,11.2.95Z" fill="#00aeef"/>
      <path d="M172.52,16.07c2,1.2,4.07,3.98,4.8,6.09,2.17,6.29-.02,12.28-6.22,15.1-5.31,2.41-11.61,2.59-17.44,2.47-.3.74.28,1.02.34,1.2.07.2,0,.47.11.74,1.06,2.62,4.01,3.97,6.73,4.24,4.53.45,8.82-.72,12.88-2.4.57-.24,1.06-.43,1.71-.59l-.41,1.18c-2.56,3.52-4.87,10.06-9.6,11.2-3.15.76-9.16.53-12.33-.39-14.37-4.17-13.78-24.53-5.62-34.03,5.96-6.94,16.96-9.67,25.06-4.8ZM165.08,23.51c-3.93-2.1-8.63.83-10.27,4.54-.09.2-.43.94-.45.99-.05.19-.13,1.55,0,1.63,3.4-.2,7.01.02,10.18-1.37.13-.06.86-.41.9-.44.57-.39.67-1.09,1.11-1.48.03-1.53.26-1.97-.63-3.14-.09-.12-.05-.37-.1-.41-.03-.03-.49-.17-.75-.31Z" fill="#00aeef"/>
      <path d="M219.01,55.16c-1.74,0-3.18-.79-3.18-3.45s1.47-3.4,3.18-3.4,3.2.82,3.2,3.39-1.44,3.45-3.2,3.45ZM219.01,48.8c-1.59,0-2.61.82-2.61,2.91s1.04,2.96,2.61,2.96,2.64-.69,2.64-2.97c0-2.03-.93-2.89-2.64-2.89ZM218.34,53.65c0,.08-.04.12-.12.12h-.44c-.09,0-.11-.05-.11-.12v-3.85c0-.1.05-.14.11-.15.23-.04.67-.04.99-.04.91,0,1.64.26,1.64,1.22,0,.75-.41,1.02-.81,1.14l1.06,1.65s.03.04.03.08-.04.07-.09.07h-.47c-.1,0-.15,0-.2-.11l-.96-1.56c-.06,0-.61,0-.63,0v1.55ZM218.34,50.19v1.32c.14,0,.32,0,.46,0,.6,0,.94-.14.94-.69s-.44-.66-.97-.66c-.23,0-.44.02-.44.02Z" fill="#00aeef"/>
      <g>
        <path d="M140.49,68.35c-2.67,0-3.52,2.33-3.52,4.97,0,2.21.69,5.06,3.7,5.06.73,0,2.03-.13,3.23-.63.11-.05.2-.07.27-.07.11,0,.2.04.25.18l.31.81c.04.11.05.18.05.25,0,.16-.09.27-.31.38-.54.25-1.96.75-3.94.75-4.16,0-5.45-3.23-5.45-6.71,0-3.73,1.45-6.6,5.46-6.6,1.92,0,3.52.72,4.23,2.4.02.07.05.16.05.23,0,.14-.09.22-.33.32l-.58.23c-.16.05-.24.07-.35.07-.15,0-.24-.09-.33-.23-.73-1.06-1.54-1.42-2.78-1.42Z" fill="#00aeef"/>
        <path d="M154.03,75.14c0,.38-.13.47-.42.47h-6.04c.05,1.71.87,2.93,2.78,2.93.73,0,1.58-.14,2.54-.45.09-.04.18-.05.24-.05.13,0,.22.07.25.22l.18.77c.02.09.02.14.02.2,0,.16-.05.25-.22.32-.82.3-1.94.52-3.21.52-3.01,0-4.37-2.01-4.37-4.86,0-3.16,1.49-5.01,4.41-5.01,3.14,0,3.85,2.39,3.85,4.95ZM150.11,71.6c-1.56,0-2.4,1.13-2.52,2.67h4.67c-.04-1.2-.36-2.67-2.14-2.67Z" fill="#00aeef"/>
        <path d="M163.63,79.86h-1.11c-.22,0-.31-.13-.31-.34v-5.46c0-1.44-.4-2.46-2.02-2.46-.6,0-1.87.25-2.43,1.72v6.17c0,.22-.09.36-.33.36h-1.09c-.24,0-.33-.13-.33-.34v-8.81c0-.22.11-.34.31-.34h.78c.27,0,.38.11.44.36l.18.91c.85-1.31,2.18-1.45,2.94-1.45,2.09,0,3.29,1.18,3.29,3.79v5.53c0,.22-.07.36-.33.36Z" fill="#00aeef"/>
        <path d="M166.92,70.36v-1.45c0-.18.07-.38.29-.43l.96-.2c.11-.02.16-.02.22-.02.2,0,.27.14.27.32v1.78h2.03c.24,0,.35.13.35.34v.79c0,.22-.09.34-.35.34h-2.03v5.71c0,.75.31.95.85.95.18,0,.44-.02.87-.14.18-.07.27-.09.36-.09.13,0,.2.07.24.22l.15.68c.02.11.04.2.04.25,0,.13-.04.22-.24.32-.38.16-1,.31-1.63.31-1.58,0-2.38-.79-2.38-2.41v-5.8h-.98c-.22,0-.35-.11-.35-.32v-.81c0-.22.13-.34.35-.34h.98Z" fill="#00aeef"/>
        <path d="M177.99,71.85c-.05.16-.15.23-.31.23-.2,0-.64-.11-1-.11-.65,0-1.63.25-2.05,1.42v6.16c-.02.22-.05.29-.27.31h-1.14c-.24,0-.33-.13-.33-.34v-8.79c0-.22.11-.36.34-.36h.76c.27,0,.36.13.42.36l.18.97c.54-.79,1.4-1.36,2.49-1.36.34,0,.67.05.94.16.18.07.24.2.24.31,0,.07-.04.2-.07.34l-.2.72Z" fill="#00aeef"/>
        <path d="M183.2,80.05c-2.61,0-4.3-1.67-4.3-4.97s1.71-4.9,4.3-4.9,4.27,1.87,4.27,4.92c0,3.34-1.74,4.95-4.27,4.95ZM185.69,75.08c0-2.24-.76-3.5-2.49-3.5s-2.52,1.26-2.52,3.5c0,2.37.82,3.55,2.52,3.55,1.8,0,2.49-1.36,2.49-3.55Z" fill="#00aeef"/>
        <path d="M200.88,79.55c0,.14-.07.31-.29.31h-.8c-.22,0-.38-.05-.44-.32l-.2-.77c-.56.86-1.52,1.29-2.83,1.29-2.54,0-3.78-1.88-3.78-4.83,0-3.64,1.92-5.04,4.07-5.04.93,0,1.89.23,2.52,1.18v-4.45c0-.18.09-.32.25-.34l.98-.22c.07-.02.16-.04.24-.04.15,0,.27.11.27.27v12.96ZM199.14,73.11c-.25-.81-1.07-1.51-2.25-1.51-1.67,0-2.54,1.31-2.54,3.59,0,2.01.6,3.45,2.38,3.45,1.18,0,2.07-.65,2.41-1.62v-3.91Z" fill="#00aeef"/>
        <path d="M211.23,75.14c0,.38-.13.47-.42.47h-6.05c.05,1.71.87,2.93,2.78,2.93.73,0,1.58-.14,2.54-.45.09-.04.18-.05.24-.05.13,0,.22.07.25.22l.18.77c.02.09.02.14.02.2,0,.16-.05.25-.22.32-.82.3-1.94.52-3.21.52-3.01,0-4.37-2.01-4.37-4.86,0-3.16,1.49-5.01,4.41-5.01,3.14,0,3.85,2.39,3.85,4.95ZM207.3,71.6c-1.56,0-2.4,1.13-2.52,2.67h4.67c-.04-1.2-.36-2.67-2.14-2.67Z" fill="#00aeef"/>
      </g>
      <g>
        <path d="M62.45,94.9h4.52c.27,0,.35.14.35.34v.88c0,.2-.07.36-.36.36h-4.5v5.76c0,.25-.09.38-.34.38h-1.13c-.24,0-.35-.13-.35-.36v-11.06c0-1.24.54-1.51,1.36-1.51h5.54c.25,0,.35.14.35.34v.93c0,.2-.09.32-.35.32h-5.08v3.61Z" fill="#00aeef"/>
        <path d="M72.84,102.81c-2.61,0-4.3-1.67-4.3-4.97s1.71-4.9,4.3-4.9,4.27,1.87,4.27,4.92c0,3.34-1.74,4.95-4.27,4.95ZM75.33,97.84c0-2.24-.76-3.5-2.49-3.5s-2.52,1.26-2.52,3.5c0,2.37.82,3.55,2.52,3.55,1.8,0,2.49-1.36,2.49-3.55Z" fill="#00aeef"/>
        <path d="M84.2,94.61c-.05.16-.15.23-.31.23-.2,0-.64-.11-1-.11-.65,0-1.63.25-2.05,1.42v6.16c-.02.22-.05.29-.27.31h-1.14c-.24,0-.33-.13-.33-.34v-8.79c0-.22.11-.36.35-.36h.76c.27,0,.36.13.42.36l.18.97c.54-.79,1.4-1.36,2.49-1.36.35,0,.67.05.94.16.18.07.24.2.24.31,0,.07-.04.2-.07.34l-.2.72Z" fill="#00aeef"/>
        <path d="M99.41,102.62h-1.13c-.2,0-.29-.13-.29-.34v-5.49c0-1.38-.38-2.42-1.92-2.42-.58,0-1.72.23-2.29,1.6v6.3c0,.22-.07.36-.33.36h-1.11c-.2,0-.31-.13-.31-.34v-5.49c0-1.35-.31-2.42-1.89-2.42-.62,0-1.85.32-2.38,1.72v6.17c0,.22-.09.36-.33.36h-1.09c-.24,0-.33-.13-.33-.34v-8.81c0-.22.11-.34.31-.34h.8c.24,0,.36.09.4.32l.2.95c.84-1.29,2.14-1.45,2.89-1.45,1.29,0,2.29.5,2.81,1.69.98-1.56,2.34-1.69,3.05-1.69,2.05,0,3.23,1.15,3.23,3.89v5.42c0,.22-.07.36-.31.36Z" fill="#00aeef"/>
        <path d="M110.72,102.24c0,.32-.15.5-.96.5-.89,0-1.51-.32-1.65-1.26-.51.84-1.47,1.33-2.78,1.33-2.52,0-3.85-1.87-3.85-4.92,0-3.23,1.69-4.95,4.1-4.95.94,0,1.94.32,2.56,1.2l.15-.72c.05-.25.22-.31.4-.31h.83c.22,0,.29.16.29.32v7.3c0,.52.16.66.6.66.16,0,.31.05.31.32v.5ZM108.07,95.76c-.22-.57-.91-1.4-2.29-1.4-2,0-2.51,1.81-2.51,3.54s.38,3.5,2.41,3.5c1.16,0,2.02-.57,2.38-1.53v-4.11Z" fill="#00aeef"/>
        <path d="M116.15,92.94c2.12,0,3,1.06,3.32,1.96.04.11.07.23.07.29,0,.16-.09.25-.29.32l-.6.23c-.15.04-.24.05-.29.05-.13,0-.24-.07-.31-.22-.35-.72-.89-1.15-1.94-1.15-1.69,0-2.52,1.2-2.52,3.45s.85,3.39,2.76,3.39c.74,0,1.6-.14,2.49-.45.09-.04.16-.04.22-.04.13,0,.22.05.25.22l.18.81s.02.13.02.16c0,.13-.05.25-.22.32-.91.38-2.14.52-3.12.52-2.83,0-4.36-1.72-4.36-4.92s1.36-4.95,4.34-4.95Z" fill="#00aeef"/>
        <path d="M122.12,92.13c-.58,0-1.07-.36-1.07-.99s.49-1,1.07-1c.65,0,1.11.36,1.11,1s-.45.99-1.11.99ZM123.01,102.26c0,.22-.09.36-.33.36h-1.09c-.24,0-.33-.13-.33-.34v-8.79c0-.22.09-.36.33-.36h1.09c.24,0,.33.14.33.36v8.78Z" fill="#00aeef"/>
        <path d="M129.31,102.81c-2.61,0-4.3-1.67-4.3-4.97s1.71-4.9,4.3-4.9,4.27,1.87,4.27,4.92c0,3.34-1.74,4.95-4.27,4.95ZM131.79,97.84c0-2.24-.76-3.5-2.49-3.5s-2.52,1.26-2.52,3.5c0,2.37.82,3.55,2.52,3.55,1.8,0,2.49-1.36,2.49-3.55ZM130.31,88.89c.15-.23.44-.27.51-.27h1.07c.24,0,.29.13.29.23s-.05.2-.07.23l-1.94,2.32c-.2.25-.33.36-.67.36h-.58c-.11-.02-.24-.07-.24-.22,0-.09.04-.16.05-.18l1.58-2.48Z" fill="#00aeef"/>
        <path d="M143.18,102.62h-1.11c-.22,0-.31-.13-.31-.34v-5.46c0-1.44-.4-2.46-2.02-2.46-.6,0-1.87.25-2.43,1.72v6.17c0,.22-.09.36-.33.36h-1.09c-.24,0-.33-.13-.33-.34v-8.81c0-.22.11-.34.31-.34h.78c.27,0,.38.11.44.36l.18.91c.85-1.31,2.18-1.45,2.94-1.45,2.09,0,3.29,1.18,3.29,3.79v5.53c0,.22-.07.36-.33.36Z" fill="#00aeef"/>
        <path d="M152.03,102.24c0,.25-.09.38-.34.38h-1.13c-.24,0-.35-.13-.35-.36v-12.2c0-.23.11-.36.35-.36h1.13c.24,0,.34.13.34.36v12.19Z" fill="#00aeef"/>
        <path d="M162.54,102.62h-1.11c-.22,0-.31-.13-.31-.34v-5.46c0-1.44-.4-2.46-2.02-2.46-.6,0-1.87.25-2.43,1.72v6.17c0,.22-.09.36-.33.36h-1.09c-.24,0-.33-.13-.33-.34v-8.81c0-.22.11-.34.31-.34h.78c.27,0,.38.11.44.36l.18.91c.85-1.31,2.18-1.45,2.94-1.45,2.09,0,3.29,1.18,3.29,3.79v5.53c0,.22-.07.36-.33.36Z" fill="#00aeef"/>
        <path d="M165.83,93.12v-1.45c0-.18.07-.38.29-.43l.96-.2c.11-.02.16-.02.22-.02.2,0,.27.14.27.32v1.78h2.03c.24,0,.35.13.35.34v.79c0,.22-.09.34-.35.34h-2.03v5.71c0,.75.31.95.85.95.18,0,.44-.02.87-.14.18-.07.27-.09.36-.09.13,0,.2.07.24.22l.15.68c.02.11.04.2.04.25,0,.13-.04.22-.24.32-.38.16-1,.31-1.63.31-1.58,0-2.38-.79-2.38-2.41v-5.8h-.98c-.22,0-.35-.11-.35-.32v-.81c0-.22.13-.34.35-.34h.98Z" fill="#00aeef"/>
        <path d="M179.33,97.9c0,.38-.13.47-.42.47h-6.04c.05,1.71.87,2.93,2.78,2.93.73,0,1.58-.14,2.54-.45.09-.04.18-.05.24-.05.13,0,.22.07.25.22l.18.77c.02.09.02.14.02.2,0,.16-.05.25-.22.32-.82.3-1.94.52-3.21.52-3.01,0-4.37-2.01-4.37-4.86,0-3.16,1.49-5.01,4.41-5.01,3.14,0,3.85,2.39,3.85,4.95ZM175.41,94.36c-1.56,0-2.4,1.13-2.52,2.67h4.67c-.04-1.2-.36-2.67-2.14-2.67Z" fill="#00aeef"/>
        <path d="M188.94,102.53c0,2.8-1.83,3.68-4.25,3.68-1.13,0-2.43-.2-3.29-.57-.18-.07-.25-.16-.25-.3,0-.07.02-.14.05-.29l.22-.66c.05-.18.16-.23.29-.23.07,0,.13.02.24.05.85.32,1.85.52,2.76.52,1.67,0,2.47-.74,2.49-2.23v-.93c-.51.81-1.54,1.24-2.81,1.24-2.58,0-3.78-1.96-3.78-4.85.02-3.25,1.71-5.01,4.12-5.01.96,0,1.92.29,2.52,1.27l.16-.77c.05-.27.22-.32.4-.32h.83c.22,0,.29.16.29.32v9.08ZM187.19,95.87c-.22-.79-1.07-1.51-2.23-1.51-1.94,0-2.56,1.7-2.56,3.59,0,1.53.33,3.45,2.34,3.45,1.22,0,2.09-.56,2.45-1.56v-3.97Z" fill="#00aeef"/>
        <path d="M196.76,94.61c-.05.16-.15.23-.31.23-.2,0-.64-.11-1-.11-.65,0-1.63.25-2.05,1.42v6.16c-.02.22-.05.29-.27.31h-1.14c-.24,0-.33-.13-.33-.34v-8.79c0-.22.11-.36.34-.36h.76c.27,0,.36.13.42.36l.18.97c.54-.79,1.4-1.36,2.49-1.36.34,0,.67.05.94.16.18.07.24.2.24.31,0,.07-.04.2-.07.34l-.2.72Z" fill="#00aeef"/>
        <path d="M206.91,102.24c0,.32-.15.5-.96.5-.89,0-1.51-.32-1.65-1.26-.51.84-1.47,1.33-2.78,1.33-2.52,0-3.85-1.87-3.85-4.92,0-3.23,1.69-4.95,4.1-4.95.94,0,1.94.32,2.56,1.2l.15-.72c.05-.25.22-.31.4-.31h.83c.22,0,.29.16.29.32v7.3c0,.52.16.66.6.66.16,0,.31.05.31.32v.5ZM204.25,95.76c-.22-.57-.91-1.4-2.29-1.4-2,0-2.51,1.81-2.51,3.54s.38,3.5,2.41,3.5c1.16,0,2.02-.57,2.38-1.53v-4.11Z" fill="#00aeef"/>
        <path d="M210.46,102.31c0,.14-.09.31-.29.31h-1.14c-.2,0-.31-.16-.31-.31v-12.63c0-.14.09-.29.25-.34l1.04-.23s.11-.02.18-.02c.15,0,.27.11.27.27v12.96Z" fill="#00aeef"/>
      </g>
    </g>
  </g>
</svg>