<?xml version="1.0" encoding="UTF-8"?>
<svg id="Capa_2" data-name="Capa 2" xmlns="http://www.w3.org/2000/svg" viewBox="0 0 132.83 59.52">
  <g id="Capa_1-2" data-name="Capa 1">
    <g>
      <path d="M52.45,7.91c.21.18.37.6.46.83.01.03.15.03.16.1.05.22.11,1.01.11,1.27,0,.45-.16.88-.1,1.34.3.06.3-.37.44-.56,1.91-2.53,6.09-3.99,9.15-2.74,1.49.61,2.57,1.94,2.91,3.49l.2-.06c.4-.78,1.2-1.66,1.92-2.18,3.93-2.85,9.76-2.35,10.66,2.99.42,2.49-.1,5.82-.4,8.32-.15,1.25-.41,2.54-.58,3.78-.3,2.14-.05,4.88-2.35,5.98-1.31.63-3.41.65-4.85.52-.11-.01-.23,0-.3-.1.09-.37.03-.76.07-1.13.4-3.87,1.18-7.66,1.57-11.53.11-1.05.28-2.96-.23-3.88-.03-.05-.73-.77-.78-.8-.12-.06-.87-.25-1.01-.24-.13,0-.81.21-.94.26-1.88.82-2.88,4.23-3.25,6.07-.3,1.5-.41,3.05-.63,4.52-.2,1.31-.38,3.58-.84,4.71-.99,2.45-4.38,2.25-6.59,2.09.03-.37-.04-.77,0-1.14.49-3.93,1.39-8.24,1.68-12.21.1-1.4.08-2.71-.71-3.9-.45-.09-.67-.33-1.22-.32-2.09.04-3.12,2.36-3.73,4-1.18,3.21-1.13,7.38-2.05,10.97-.08.33-.11.35-.19.55-.31.8-.45,1.06-1.26,1.47-.99.51-2.47.78-3.59.78-.25,0-1.47-.11-1.6-.2-.1-.06-.09-.11-.09-.21-.01-.3.03-.91.06-1.23.45-4.53,1.34-9.12,1.87-13.61.15-1.27.27-2.54.2-3.84-.27-.17-.25-.53-.43-.82-.14-.23-1.5-1.58-1.35-1.73.09,0,.18.01.26-.04.86-.56,2.11-1.27,3.09-1.63.82-.29,2.28-.58,3.24-.42.09.01.96.38,1.01.42Z" fill="#fff"/>
      <path d="M111.95,30.7c-.2-.06-.79-1.65-.91-1.97-.53-1.35-1.09-2.96-1.55-4.5-.22-.7-.18-.97-.73-.24-2.39,3.23-5.15,5.9-8.93,7.44-1.1.44-2.61.98-3.96,1.15-.28.03-.56,0-.83,0l11-13.3-5.44-11.06c.04-.42,3.63-.39,4.11-.35.98.1,2.35.7,3.14,1.3,1.14.85,1.8,2.76,2.3,4.07.16.41.28.76.42,1.11.08.18-.07.42.18.37l5.09-5.15c1.17-.86,2.2-1.95,3.33-2.84,3.69-2.9,7.94-5.52,12.41-6.49.37-.08.71-.33,1.19-.19l.05.2-20.13,20.54c-.05.5.53-.11.63-.17.26-.14.67-.29.98-.44.11-.06.13-.31.47-.18l4.57,10.71h-7.39Z" fill="#fff"/>
      <path d="M39.94,9.21c1.78,1.03,2.84,2.58,3.63,4.44.88,2.1.99,4.83.58,7.27-1.16,6.91-7.57,11.74-14.7,10.25-7.85-1.64-9.03-10.72-5.81-16.96,2.96-5.75,10.53-8.34,16.31-5ZM35.78,13.77c-2.8-1.94-5.03.66-5.93,3.16-.82,2.28-1.58,7.63,1.29,8.76,3.07,1.21,4.85-1.83,5.52-4.33.53-1.94,1-6.29-.89-7.6Z" fill="#fff"/>
      <path d="M22.1,3.15s.02.11.11.16c.26.12.41.1.66.41,1.1,1.37.33,3.29-.33,4.72-.05.12-.38.54-.41.61-.09.22.13.48-.53.32-.07-.02-.06-.17-.14-.19-2.24-.56-4.76-.86-7.1-.37-3.66.76-6.5,3.63-6.82,7.66-.55,6.95,3.21,9.83,9.86,9.07l4.12-1.19c.1.11-.49,2.1-.59,2.43-.29.94-.9,2.7-1.49,3.44-.1.12-.9.75-.96.77-.26.06-.58-.03-.87,0-6.95,1.05-14.18-.42-16.88-7.63C.13,21.73-.04,19.7,0,17.84.23,8.83,7.01,2.94,15.83,2.62c1.58-.06,4.89.02,6.27.53Z" fill="#fff"/>
      <path d="M96.69,9.01c1.12.67,2.28,2.23,2.69,3.41,1.22,3.52-.01,6.88-3.49,8.46-2.97,1.35-6.5,1.45-9.78,1.38-.17.42.16.57.19.67.04.11,0,.26.06.41.59,1.47,2.25,2.23,3.77,2.38,2.54.25,4.95-.4,7.22-1.34.32-.13.59-.24.96-.33l-.23.66c-1.43,1.97-2.73,5.64-5.38,6.28-1.76.43-5.13.3-6.91-.22-8.05-2.34-7.72-13.75-3.15-19.07,3.34-3.89,9.51-5.42,14.04-2.69ZM92.52,13.18c-2.2-1.18-4.84.46-5.76,2.55-.05.11-.24.53-.25.56-.03.11-.07.87,0,.91,1.91-.11,3.93.01,5.7-.77.07-.03.48-.23.5-.24.32-.22.38-.61.62-.83.02-.86.14-1.1-.35-1.76-.05-.07-.03-.2-.06-.23-.02-.02-.27-.1-.42-.18Z" fill="#fff"/>
      <path d="M122.75,30.91c-.98,0-1.78-.44-1.78-1.93s.82-1.91,1.78-1.91,1.79.46,1.79,1.9-.81,1.94-1.79,1.94ZM122.75,27.35c-.89,0-1.46.46-1.46,1.63s.58,1.66,1.46,1.66,1.48-.39,1.48-1.67c0-1.14-.52-1.62-1.48-1.62ZM122.37,30.07s-.02.07-.06.07h-.24s-.06-.03-.06-.07v-2.16c0-.05.03-.08.06-.08.13-.02.37-.02.55-.02.51,0,.92.14.92.68,0,.42-.23.57-.45.64l.59.93s.01.02.01.04-.02.04-.05.04h-.26c-.05,0-.08,0-.11-.06l-.54-.88s-.34,0-.35,0v.87ZM122.37,28.13v.74c.08,0,.18,0,.26,0,.34,0,.53-.08.53-.39s-.24-.37-.54-.37c-.13,0-.24,0-.24,0Z" fill="#fff"/>
      <g>
        <path d="M78.74,38.31c-1.5,0-1.97,1.31-1.97,2.79,0,1.24.39,2.84,2.08,2.84.41,0,1.14-.07,1.81-.35.06-.03.11-.04.15-.04.06,0,.11.02.14.1l.17.45c.02.06.03.1.03.14,0,.09-.05.15-.17.21-.31.14-1.1.42-2.21.42-2.33,0-3.05-1.81-3.05-3.76,0-2.09.81-3.7,3.06-3.7,1.08,0,1.97.4,2.37,1.35.01.04.03.09.03.13,0,.08-.05.12-.18.18l-.33.13c-.09.03-.13.04-.19.04-.08,0-.13-.05-.18-.13-.41-.59-.87-.79-1.56-.79Z" fill="#fff"/>
        <path d="M86.33,42.11c0,.21-.07.26-.23.26h-3.39c.03.96.49,1.64,1.56,1.64.41,0,.89-.08,1.42-.25.05-.02.1-.03.13-.03.07,0,.12.04.14.12l.1.43c.01.05.01.08.01.11,0,.09-.03.14-.12.18-.46.17-1.09.29-1.8.29-1.69,0-2.45-1.13-2.45-2.73,0-1.77.83-2.81,2.47-2.81,1.76,0,2.16,1.34,2.16,2.78ZM84.13,40.13c-.87,0-1.34.63-1.41,1.5h2.61c-.02-.67-.2-1.5-1.2-1.5Z" fill="#fff"/>
        <path d="M91.71,44.76h-.62c-.12,0-.17-.07-.17-.19v-3.06c0-.8-.22-1.38-1.13-1.38-.34,0-1.05.14-1.36.97v3.46c0,.12-.05.2-.18.2h-.61c-.13,0-.18-.07-.18-.19v-4.94c0-.12.06-.19.17-.19h.44c.15,0,.21.06.24.2l.1.51c.48-.73,1.22-.81,1.65-.81,1.17,0,1.84.66,1.84,2.12v3.1c0,.12-.04.2-.18.2Z" fill="#fff"/>
        <path d="M93.55,39.43v-.81c0-.1.04-.21.16-.24l.54-.11c.06-.01.09-.01.12-.01.11,0,.15.08.15.18v1h1.14c.13,0,.19.07.19.19v.44c0,.12-.05.19-.19.19h-1.14v3.2c0,.42.17.53.48.53.1,0,.24-.01.49-.08.1-.04.15-.05.2-.05.07,0,.11.04.13.12l.08.38c.01.06.02.11.02.14,0,.07-.02.12-.13.18-.21.09-.56.17-.92.17-.89,0-1.33-.44-1.33-1.35v-3.25h-.55c-.12,0-.19-.06-.19-.18v-.45c0-.12.07-.19.19-.19h.55Z" fill="#fff"/>
        <path d="M99.76,40.27c-.03.09-.08.13-.17.13-.11,0-.36-.06-.56-.06-.37,0-.92.14-1.15.79v3.45c-.01.12-.03.16-.15.17h-.64c-.13,0-.18-.07-.18-.19v-4.93c0-.12.06-.2.19-.2h.43c.15,0,.2.07.23.2l.1.54c.31-.44.78-.76,1.39-.76.19,0,.38.03.53.09.1.04.13.11.13.17,0,.04-.02.11-.04.19l-.11.4Z" fill="#fff"/>
        <path d="M102.67,44.87c-1.47,0-2.41-.94-2.41-2.79s.96-2.75,2.41-2.75,2.39,1.05,2.39,2.76c0,1.87-.98,2.78-2.39,2.78ZM104.07,42.08c0-1.26-.43-1.96-1.39-1.96s-1.41.7-1.41,1.96c0,1.33.46,1.99,1.41,1.99,1.01,0,1.39-.76,1.39-1.99Z" fill="#fff"/>
        <path d="M112.58,44.58c0,.08-.04.17-.16.17h-.45c-.12,0-.21-.03-.24-.18l-.11-.43c-.32.48-.85.72-1.59.72-1.42,0-2.12-1.06-2.12-2.71,0-2.04,1.08-2.83,2.28-2.83.52,0,1.06.13,1.41.66v-2.49c0-.1.05-.18.14-.19l.55-.12s.09-.02.13-.02c.08,0,.15.06.15.15v7.26ZM111.61,40.97c-.14-.45-.6-.84-1.26-.84-.94,0-1.42.73-1.42,2.01,0,1.13.34,1.93,1.33,1.93.66,0,1.16-.36,1.35-.91v-2.19Z" fill="#fff"/>
        <path d="M118.38,42.11c0,.21-.07.26-.23.26h-3.39c.03.96.49,1.64,1.56,1.64.41,0,.88-.08,1.42-.25.05-.02.1-.03.13-.03.07,0,.12.04.14.12l.1.43c.01.05.01.08.01.11,0,.09-.03.14-.12.18-.46.17-1.09.29-1.8.29-1.69,0-2.45-1.13-2.45-2.73,0-1.77.83-2.81,2.47-2.81,1.76,0,2.16,1.34,2.16,2.78ZM116.18,40.13c-.88,0-1.34.63-1.41,1.5h2.61c-.02-.67-.2-1.5-1.2-1.5Z" fill="#fff"/>
      </g>
      <g>
        <path d="M35,53.19h2.53c.15,0,.19.08.19.19v.49c0,.11-.04.2-.2.2h-2.52v3.23c0,.14-.05.21-.19.21h-.63c-.13,0-.19-.07-.19-.2v-6.2c0-.69.31-.84.76-.84h3.1c.14,0,.19.08.19.19v.52c0,.11-.05.18-.19.18h-2.85v2.02Z" fill="#fff"/>
        <path d="M40.82,57.62c-1.47,0-2.41-.94-2.41-2.79s.96-2.75,2.41-2.75,2.39,1.05,2.39,2.76c0,1.87-.98,2.78-2.39,2.78ZM42.22,54.84c0-1.26-.43-1.96-1.39-1.96s-1.41.7-1.41,1.96c0,1.33.46,1.99,1.41,1.99,1.01,0,1.39-.76,1.39-1.99Z" fill="#fff"/>
        <path d="M47.19,53.03c-.03.09-.08.13-.17.13-.11,0-.36-.06-.56-.06-.37,0-.92.14-1.15.79v3.45c-.01.12-.03.16-.15.17h-.64c-.13,0-.18-.07-.18-.19v-4.93c0-.12.06-.2.19-.2h.43c.15,0,.2.07.23.2l.1.54c.31-.44.78-.76,1.39-.76.19,0,.38.03.53.09.1.04.13.11.13.17,0,.04-.02.11-.04.19l-.11.4Z" fill="#fff"/>
        <path d="M55.72,57.51h-.63c-.11,0-.16-.07-.16-.19v-3.08c0-.77-.21-1.36-1.08-1.36-.33,0-.97.13-1.28.9v3.53c0,.12-.04.2-.18.2h-.62c-.11,0-.17-.07-.17-.19v-3.08c0-.75-.17-1.36-1.06-1.36-.35,0-1.04.18-1.33.97v3.46c0,.12-.05.2-.18.2h-.61c-.13,0-.18-.07-.18-.19v-4.94c0-.12.06-.19.17-.19h.45c.13,0,.2.05.22.18l.11.53c.47-.72,1.2-.81,1.62-.81.72,0,1.28.28,1.58.95.55-.88,1.31-.95,1.71-.95,1.15,0,1.81.64,1.81,2.18v3.04c0,.12-.04.2-.17.2Z" fill="#fff"/>
        <path d="M62.05,57.3c0,.18-.08.28-.54.28-.5,0-.84-.18-.93-.7-.28.47-.82.74-1.56.74-1.41,0-2.16-1.05-2.16-2.76,0-1.81.95-2.78,2.3-2.78.53,0,1.09.18,1.43.67l.08-.4c.03-.14.12-.17.22-.17h.47c.12,0,.16.09.16.18v4.09c0,.29.09.37.34.37.09,0,.17.03.17.18v.28ZM60.57,53.67c-.12-.32-.51-.78-1.28-.78-1.12,0-1.4,1.02-1.4,1.98s.21,1.96,1.35,1.96c.65,0,1.13-.32,1.33-.85v-2.3Z" fill="#fff"/>
        <path d="M65.1,52.09c1.19,0,1.68.59,1.86,1.1.02.06.04.13.04.16,0,.09-.05.14-.16.18l-.34.13c-.08.02-.13.03-.16.03-.07,0-.13-.04-.17-.12-.19-.4-.5-.64-1.09-.64-.95,0-1.41.67-1.41,1.93s.48,1.9,1.55,1.9c.42,0,.9-.08,1.39-.25.05-.02.09-.02.12-.02.07,0,.12.03.14.12l.1.45s.01.07.01.09c0,.07-.03.14-.12.18-.51.21-1.2.29-1.75.29-1.59,0-2.44-.97-2.44-2.76s.76-2.78,2.43-2.78Z" fill="#fff"/>
        <path d="M68.44,51.64c-.33,0-.6-.2-.6-.55s.27-.56.6-.56c.37,0,.62.2.62.56s-.25.55-.62.55ZM68.94,57.31c0,.12-.05.2-.18.2h-.61c-.13,0-.18-.07-.18-.19v-4.93c0-.12.05-.2.18-.2h.61c.13,0,.18.08.18.2v4.92Z" fill="#fff"/>
        <path d="M72.47,57.62c-1.47,0-2.41-.94-2.41-2.79s.96-2.75,2.41-2.75,2.39,1.05,2.39,2.76c0,1.87-.98,2.78-2.39,2.78ZM73.86,54.84c0-1.26-.43-1.96-1.39-1.96s-1.41.7-1.41,1.96c0,1.33.46,1.99,1.41,1.99,1.01,0,1.39-.76,1.39-1.99ZM73.03,49.82c.08-.13.24-.15.28-.15h.6c.13,0,.16.07.16.13s-.03.11-.04.13l-1.09,1.3c-.11.14-.18.2-.38.2h-.33c-.06-.01-.13-.04-.13-.12,0-.05.02-.09.03-.1l.89-1.39Z" fill="#fff"/>
        <path d="M80.24,57.51h-.62c-.12,0-.17-.07-.17-.19v-3.06c0-.8-.22-1.38-1.13-1.38-.34,0-1.05.14-1.36.97v3.46c0,.12-.05.2-.18.2h-.61c-.13,0-.18-.07-.18-.19v-4.94c0-.12.06-.19.17-.19h.44c.15,0,.21.06.24.2l.1.51c.48-.73,1.22-.81,1.65-.81,1.17,0,1.84.66,1.84,2.12v3.1c0,.12-.04.2-.18.2Z" fill="#fff"/>
        <path d="M85.21,57.3c0,.14-.05.21-.19.21h-.63c-.13,0-.19-.07-.19-.2v-6.84c0-.13.06-.2.19-.2h.63c.13,0,.19.07.19.2v6.83Z" fill="#fff"/>
        <path d="M91.1,57.51h-.62c-.12,0-.17-.07-.17-.19v-3.06c0-.8-.22-1.38-1.13-1.38-.34,0-1.05.14-1.36.97v3.46c0,.12-.05.2-.18.2h-.61c-.13,0-.18-.07-.18-.19v-4.94c0-.12.06-.19.17-.19h.44c.15,0,.21.06.24.2l.1.51c.48-.73,1.22-.81,1.65-.81,1.17,0,1.84.66,1.84,2.12v3.1c0,.12-.04.2-.18.2Z" fill="#fff"/>
        <path d="M92.94,52.19v-.81c0-.1.04-.21.16-.24l.54-.11c.06-.01.09-.01.12-.01.11,0,.15.08.15.18v1h1.14c.13,0,.19.07.19.19v.44c0,.12-.05.19-.19.19h-1.14v3.2c0,.42.17.53.48.53.1,0,.24-.01.49-.08.1-.04.15-.05.2-.05.07,0,.11.04.13.12l.08.38c.01.06.02.11.02.14,0,.07-.02.12-.13.18-.21.09-.56.17-.92.17-.89,0-1.33-.44-1.33-1.35v-3.25h-.55c-.12,0-.19-.06-.19-.18v-.45c0-.12.07-.19.19-.19h.55Z" fill="#fff"/>
        <path d="M100.51,54.87c0,.21-.07.26-.23.26h-3.39c.03.96.49,1.64,1.56,1.64.41,0,.89-.08,1.42-.25.05-.02.1-.03.13-.03.07,0,.12.04.14.12l.1.43c.01.05.01.08.01.11,0,.09-.03.14-.12.18-.46.17-1.09.29-1.8.29-1.69,0-2.45-1.13-2.45-2.73,0-1.77.83-2.81,2.47-2.81,1.76,0,2.16,1.34,2.16,2.78ZM98.31,52.88c-.87,0-1.34.63-1.41,1.5h2.61c-.02-.67-.2-1.5-1.2-1.5Z" fill="#fff"/>
        <path d="M105.89,57.46c0,1.57-1.03,2.06-2.38,2.06-.63,0-1.36-.11-1.84-.32-.1-.04-.14-.09-.14-.17,0-.04.01-.08.03-.16l.12-.37c.03-.1.09-.13.16-.13.04,0,.07.01.13.03.48.18,1.04.29,1.55.29.94,0,1.38-.41,1.39-1.25v-.52c-.28.45-.86.69-1.58.69-1.44,0-2.12-1.1-2.12-2.72.01-1.82.96-2.81,2.31-2.81.54,0,1.08.16,1.41.71l.09-.43c.03-.15.12-.18.22-.18h.47c.12,0,.16.09.16.18v5.09ZM104.91,53.73c-.12-.44-.6-.84-1.25-.84-1.09,0-1.43.96-1.43,2.01,0,.85.18,1.93,1.31,1.93.68,0,1.17-.31,1.37-.88v-2.22Z" fill="#fff"/>
        <path d="M110.27,53.03c-.03.09-.08.13-.17.13-.11,0-.36-.06-.56-.06-.37,0-.92.14-1.15.79v3.45c-.01.12-.03.16-.15.17h-.64c-.13,0-.18-.07-.18-.19v-4.93c0-.12.06-.2.19-.2h.43c.15,0,.2.07.23.2l.1.54c.31-.44.78-.76,1.39-.76.19,0,.38.03.53.09.1.04.13.11.13.17,0,.04-.02.11-.04.19l-.11.4Z" fill="#fff"/>
        <path d="M115.96,57.3c0,.18-.08.28-.54.28-.5,0-.84-.18-.93-.7-.28.47-.82.74-1.56.74-1.41,0-2.16-1.05-2.16-2.76,0-1.81.95-2.78,2.3-2.78.53,0,1.09.18,1.43.67l.08-.4c.03-.14.12-.17.22-.17h.47c.12,0,.16.09.16.18v4.09c0,.29.09.37.34.37.09,0,.17.03.17.18v.28ZM114.48,53.67c-.12-.32-.51-.78-1.28-.78-1.12,0-1.4,1.02-1.4,1.98s.21,1.96,1.35,1.96c.65,0,1.13-.32,1.33-.85v-2.3Z" fill="#fff"/>
        <path d="M117.95,57.34c0,.08-.05.17-.16.17h-.64c-.11,0-.17-.09-.17-.17v-7.08c0-.08.05-.16.14-.19l.58-.13s.06-.01.1-.01c.08,0,.15.06.15.15v7.26Z" fill="#fff"/>
      </g>
    </g>
  </g>
</svg>